<?xml version="1.0" encoding="iso-8859-1"?>
<!-- Uploaded to: SVG Repo, www.svgrepo.com, Generator: SVG Repo Mixer Tools -->
<svg fill="#000000" height="800px" width="800px" version="1.1" id="Layer_1" xmlns="http://www.w3.org/2000/svg" xmlns:xlink="http://www.w3.org/1999/xlink" 
	 viewBox="0 0 512 512" xml:space="preserve">
<g>
	<g>
		<g>
			<path d="M282.503,149.97c-11.43-2.858-23.013,4.092-25.87,15.522l-42.667,170.667c-2.858,11.43,4.092,23.013,15.522,25.87
				s23.013-4.092,25.87-15.522l42.667-170.667C300.883,164.41,293.933,152.828,282.503,149.97z"/>
			<path d="M170.662,234.667V192c11.782,0,21.333-9.551,21.333-21.333c0-11.782-9.551-21.333-21.333-21.333
				c-25.201,0-42.667,17.466-42.667,42.667v33.83l-15.085,15.085c-8.331,8.331-8.331,21.839,0,30.17l15.085,15.085V320
				c0,25.201,17.466,42.667,42.667,42.667c11.782,0,21.333-9.551,21.333-21.333c0-11.782-9.551-21.333-21.333-21.333v-42.667
				c0-5.658-2.248-11.084-6.248-15.085L158.166,256l6.248-6.248C168.415,245.751,170.662,240.325,170.662,234.667z"/>
			<path d="M383.996,225.83V192c0-25.201-17.466-42.667-42.667-42.667c-11.782,0-21.333,9.551-21.333,21.333
				c0,11.782,9.551,21.333,21.333,21.333v42.667c0,5.658,2.248,11.084,6.248,15.085l6.248,6.248l-6.248,6.248
				c-4.001,4.001-6.248,9.427-6.248,15.085V320c-11.782,0-21.333,9.551-21.333,21.333c0,11.782,9.551,21.333,21.333,21.333
				c25.201,0,42.667-17.466,42.667-42.667v-33.83l15.085-15.085c8.331-8.331,8.331-21.839,0-30.17L383.996,225.83z"/>
			<path d="M426.731,0H85.269C38.181,0,0,38.181,0,85.269v341.461C0,473.819,38.181,512,85.269,512h341.461
				C473.819,512,512,473.819,512,426.731V85.269C512,38.181,473.819,0,426.731,0z M469.333,426.731
				c0,23.525-19.078,42.603-42.603,42.603H85.269c-23.525,0-42.603-19.078-42.603-42.603V85.269
				c0-23.525,19.078-42.603,42.603-42.603h341.461c23.525,0,42.603,19.078,42.603,42.603V426.731z"/>
		</g>
	</g>
</g>
</svg>