<?xml version="1.0" standalone="no"?>
<!DOCTYPE svg PUBLIC "-//W3C//DTD SVG 20010904//EN"
 "http://www.w3.org/TR/2001/REC-SVG-20010904/DTD/svg10.dtd">
<svg version="1.0" xmlns="http://www.w3.org/2000/svg"
 width="1200.000000pt" height="1108.000000pt" viewBox="0 0 1200.000000 1108.000000"
 preserveAspectRatio="xMidYMid meet">
<metadata>
Created by potrace 1.16, written by Peter Selinger 2001-2019
</metadata>
<g transform="translate(0.000000,1108.000000) scale(0.100000,-0.100000)"
fill="#000000" stroke="none">
<path d="M6045 10429 c-619 -5 -1026 -13 -1105 -20 -69 -7 -150 -14 -180 -16
-85 -6 -96 -10 -151 -59 -29 -25 -65 -50 -80 -56 -27 -9 -114 -109 -156 -178
-12 -19 -30 -65 -42 -102 -11 -37 -27 -81 -36 -98 -14 -27 -17 -131 -24 -823
-4 -435 -6 -808 -4 -827 2 -19 -3 -136 -10 -260 l-14 -225 -46 -91 c-52 -103
-129 -195 -191 -226 -23 -11 -58 -36 -78 -54 -20 -18 -54 -37 -75 -42 -206
-50 -124 -46 -1183 -48 -865 -1 -993 -3 -1053 -17 -99 -24 -164 -57 -232 -118
-33 -30 -81 -71 -107 -92 -60 -48 -94 -106 -107 -182 -6 -33 -18 -98 -26 -145
-14 -72 -17 -239 -24 -1070 -10 -1179 -5 -1315 53 -1469 19 -52 43 -102 53
-111 200 -187 275 -234 423 -267 79 -17 148 -18 1035 -18 921 0 1026 -3 1172
-31 12 -2 42 -21 67 -42 25 -20 67 -55 93 -76 71 -58 131 -140 149 -205 9 -31
28 -72 43 -91 l26 -35 5 -1060 5 -1060 26 -55 c15 -30 30 -66 34 -80 22 -78
137 -214 229 -271 28 -18 67 -43 87 -56 26 -17 71 -29 170 -45 129 -20 170
-21 1154 -24 863 -3 1040 -2 1150 11 183 22 228 32 277 65 24 16 65 37 91 46
82 28 174 149 251 332 l27 63 6 1067 6 1067 33 63 c19 35 34 71 34 79 0 57
150 213 258 267 137 69 95 66 1169 66 639 -1 986 3 1022 9 29 6 69 11 89 11
19 0 55 11 81 24 25 14 71 36 101 50 34 16 91 60 148 114 89 83 94 91 123 172
69 193 63 68 66 1354 3 1120 2 1172 -16 1250 -10 44 -22 100 -26 123 -4 24
-19 57 -39 80 -17 21 -45 57 -62 79 -43 61 -169 163 -244 197 -54 25 -85 31
-180 39 -63 5 -538 8 -1055 8 -909 -1 -943 0 -1026 19 -104 24 -126 34 -204
84 -91 60 -153 125 -189 197 -18 36 -45 83 -59 104 -27 38 -27 42 -27 200 0
89 -2 563 -5 1055 -5 872 -6 897 -26 970 -25 90 -71 183 -106 219 -14 14 -40
49 -59 78 -28 43 -43 56 -86 72 -29 11 -80 36 -113 56 -32 20 -75 41 -94 46
-62 17 -215 18 -1216 9z m207 -1244 c181 -184 210 -220 200 -257 -6 -25 -52
-48 -94 -48 -29 0 -45 12 -113 81 -184 187 -198 199 -226 199 -21 0 -51 -26
-147 -125 -126 -132 -158 -155 -207 -155 -75 0 -96 59 -46 126 41 55 302 322
337 345 17 11 47 19 71 19 40 0 45 -4 225 -185z m-83 -1815 c161 -15 370 -63
486 -114 58 -25 130 -58 148 -67 330 -173 571 -400 764 -724 24 -40 113 -220
113 -228 0 -5 7 -23 14 -40 23 -49 58 -157 66 -202 4 -22 15 -67 23 -100 9
-33 21 -131 28 -217 14 -184 1 -415 -32 -558 -23 -99 -68 -244 -86 -280 -7
-14 -13 -30 -13 -37 0 -23 -122 -249 -184 -342 -184 -272 -480 -523 -760 -641
-39 -17 -78 -34 -86 -38 -23 -12 -176 -58 -265 -80 -136 -34 -360 -48 -537
-33 -84 7 -189 22 -233 33 -89 22 -242 68 -265 80 -8 4 -49 21 -90 39 -41 17
-80 35 -86 40 -6 5 -36 22 -68 39 -245 131 -502 389 -673 675 -26 42 -112 221
-118 245 -4 14 -11 30 -14 35 -4 6 -19 48 -33 95 -74 245 -99 474 -79 723 6
83 21 193 33 242 25 107 68 256 78 270 4 6 11 21 15 35 6 22 86 187 124 257
55 103 187 271 297 379 114 112 302 253 409 306 17 8 39 19 50 25 21 12 86 41
147 66 238 101 536 143 827 117z m-3499 -1395 c55 -28 51 -95 -8 -146 -97 -82
-242 -233 -242 -251 0 -35 21 -62 140 -178 64 -64 122 -126 129 -139 17 -31 6
-87 -22 -106 -35 -25 -72 -19 -104 18 -15 17 -55 59 -89 92 -34 33 -107 108
-163 168 -87 93 -101 112 -101 141 0 29 8 41 46 72 25 21 56 52 68 69 41 59
273 275 296 275 11 0 34 -7 50 -15z m6869 -164 c111 -110 183 -189 187 -205
10 -41 -2 -109 -23 -124 -10 -7 -89 -81 -176 -165 -87 -84 -171 -158 -188
-166 -26 -13 -31 -13 -50 5 -18 16 -20 27 -17 73 5 56 10 63 104 142 10 9 54
56 98 103 62 69 77 91 72 109 -3 12 -66 80 -141 151 -130 125 -135 131 -135
171 0 53 23 85 60 85 23 0 59 -31 209 -179z m-3833 -3524 c12 -7 83 -72 158
-144 108 -106 142 -133 164 -133 22 0 50 24 147 129 66 71 130 134 143 140 58
28 122 1 122 -51 0 -26 -16 -46 -98 -127 -303 -297 -307 -300 -344 -280 -72
38 -384 343 -394 385 -8 33 10 72 38 84 31 12 39 11 64 -3z"/>
<path d="M5760 7160 c-47 -4 -105 -15 -129 -24 -24 -9 -52 -16 -63 -16 -10 0
-36 -9 -58 -20 -22 -11 -47 -20 -56 -20 -31 0 -226 -96 -313 -155 -24 -17 -54
-35 -65 -42 -46 -25 -244 -213 -311 -294 -81 -97 -99 -122 -149 -210 -54 -94
-53 -92 -115 -231 -20 -45 -47 -133 -80 -258 -33 -125 -46 -345 -32 -517 7
-82 19 -167 27 -191 9 -23 19 -66 24 -95 13 -85 40 -155 120 -317 85 -172 147
-263 271 -394 172 -181 331 -294 564 -397 27 -12 103 -38 140 -49 17 -5 66
-19 110 -32 75 -21 97 -23 355 -23 258 0 280 2 355 23 44 13 94 27 110 32 93
26 266 102 340 150 17 11 44 27 60 36 62 35 207 158 302 258 85 89 233 286
233 310 0 4 8 20 18 34 39 57 142 314 142 357 1 11 7 38 15 60 17 46 45 285
45 384 0 95 -26 330 -43 387 -8 27 -19 67 -25 89 -11 46 -29 96 -47 140 -8 17
-26 59 -41 95 -15 36 -36 76 -46 89 -10 13 -18 28 -18 33 0 25 -140 216 -226
306 -178 189 -331 297 -569 403 -34 15 -108 40 -150 51 -22 6 -69 20 -105 30
-53 16 -105 20 -285 23 -121 2 -258 0 -305 -5z m-38 -1080 c70 0 278 -172 278
-230 0 -12 12 -42 28 -68 25 -44 27 -54 27 -168 0 -115 -1 -122 -27 -160 -20
-29 -28 -52 -28 -83 0 -40 -5 -48 -72 -115 -85 -84 -162 -130 -254 -152 -59
-13 -74 -13 -140 0 -107 22 -180 63 -263 148 -78 80 -87 102 -111 255 -12 81
-4 203 20 288 4 17 11 43 15 59 8 37 147 183 195 204 44 20 145 31 230 26 36
-2 82 -4 102 -4z m660 -19 c19 -18 48 -118 48 -165 0 -17 -7 -50 -17 -74 -14
-37 -14 -45 -2 -57 12 -12 21 -9 67 21 28 19 60 47 70 61 9 14 31 41 48 61 17
21 45 58 62 84 56 83 131 110 186 67 19 -15 26 -30 26 -55 0 -54 -51 -144
-104 -183 -25 -19 -46 -38 -46 -43 0 -5 -18 -28 -40 -52 -22 -24 -40 -51 -40
-60 0 -9 18 -36 40 -60 22 -24 40 -48 40 -54 0 -6 15 -30 33 -54 18 -24 45
-65 61 -92 16 -27 43 -65 61 -85 39 -44 49 -72 41 -117 -18 -91 -101 -124
-157 -61 -83 91 -119 137 -142 182 -14 28 -41 73 -59 100 -27 41 -39 50 -62
50 -49 0 -69 -40 -71 -137 -2 -92 -20 -146 -62 -190 -35 -36 -90 -38 -120 -5
-46 50 -47 54 -49 437 -2 201 -1 381 2 401 3 19 15 48 27 63 36 45 120 54 159
17z"/>
<path d="M5548 5882 c-32 -8 -123 -82 -161 -131 -26 -33 -27 -40 -27 -152 l0
-119 48 -53 c26 -30 66 -64 90 -76 107 -54 254 -1 315 114 27 50 29 163 4 247
-34 113 -165 196 -269 170z"/>
</g>
</svg>
