<?xml version="1.0" encoding="utf-8"?>
<svg version="1.0" width="512.000000pt" height="512.000000pt" viewBox="0 0 512.000000 512.000000" preserveAspectRatio="xMidYMid meet" xmlns="http://www.w3.org/2000/svg">
  <g transform="matrix(0.019398, 0, 0, -0.019398, 47.456924, 467.454285)" fill="#000000" stroke="none" style="">
    <path d="M1529 21159 c-123 -9 -357 -64 -474 -111 -193 -77 -420 -225 -555 -361 -147 -147 -273 -329 -347 -501 -88 -203 -125 -348 -143 -562 -8 -93 -10 -2636 -8 -9134 l4 -9005 26 -125 c47 -226 130 -431 252 -620 63 -97 183 -237 262 -305 38 -33 78 -68 89 -78 78 -70 314 -199 475 -259 52 -20 163 -49 245 -64 l150 -29 9075 0 c8763 0 9078 1 9175 18 314 58 504 137 735 306 109 79 314 290 383 393 31 48 57 89 57 92 0 3 13 27 29 53 87 141 163 379 191 598 9 67 13 2253 16 8700 5 8372 2 9469 -24 9605 -45 225 -65 286 -147 455 -163 337 -436 608 -780 775 -240 117 -366 144 -720 160 -281 12 -17808 11 -17966 -1z m3301 -7788 c143 -19 313 -59 460 -108 501 -169 925 -550 1088 -978 63 -164 80 -244 92 -414 17 -268 -17 -441 -135 -685 -75 -152 -112 -207 -254 -370 -89 -102 -244 -233 -354 -298 -38 -22 -71 -46 -74 -54 -5 -14 12 -48 39 -75 8 -8 29 -36 48 -63 118 -168 189 -267 320 -445 47 -64 95 -130 105 -148 21 -32 134 -190 254 -353 39 -52 93 -129 120 -170 27 -41 69 -100 93 -131 24 -31 65 -87 93 -125 27 -38 86 -119 131 -180 97 -130 125 -175 118 -186 -3 -4 -324 -8 -714 -8 l-709 0 -26 28 c-15 15 -39 45 -53 67 -15 22 -30 45 -34 50 -5 6 -45 62 -90 125 -44 63 -94 133 -111 155 -48 65 -254 355 -307 430 -27 39 -124 174 -215 300 -91 127 -196 274 -233 327 -37 53 -77 101 -90 107 -24 12 -370 17 -380 6 -4 -4 -7 -363 -7 -798 l0 -792 -640 0 -640 0 -2 2375 c-1 1306 0 2388 4 2403 l6 28 1006 -4 c670 -3 1034 -8 1091 -16z m3935 -976 c191 -35 399 -101 535 -170 98 -50 248 -136 297 -172 78 -57 230 -195 308 -280 78 -85 185 -220 185 -233 0 -4 14 -24 30 -45 39 -49 103 -176 147 -290 212 -547 196 -1100 -47 -1600 -156 -324 -386 -576 -745 -817 -51 -34 -251 -130 -330 -158 -256 -90 -437 -121 -710 -121 -216 -1 -313 12 -512 66 -270 73 -467 171 -692 344 -89 69 -242 216 -302 291 -189 235 -367 603 -399 821 -5 37 -17 109 -26 160 -35 195 -17 554 37 763 41 161 51 185 152 396 50 103 155 269 197 310 3 3 17 21 32 41 40 54 192 205 281 279 281 236 680 398 1067 434 89 8 416 -4 495 -19z m3172 -58 c9 -6 12 -178 13 -730 0 -397 4 -725 8 -729 9 -8 31 8 60 47 33 42 1382 1394 1403 1406 21 11 2619 13 2620 2 0 -5 2 -498 3 -1098 4 -1129 7 -1225 46 -1395 39 -165 102 -254 219 -309 53 -25 64 -26 206 -26 134 1 158 4 226 26 119 40 233 121 326 229 43 51 83 102 88 114 6 13 12 459 15 1241 l5 1220 633 3 632 2 0 -1881 0 -1881 -128 4 c-129 3 -129 3 -179 38 -55 38 -169 135 -352 297 -63 57 -132 115 -153 130 l-39 27 -66 -67 c-132 -135 -302 -248 -562 -372 -66 -31 -225 -80 -346 -107 -131 -28 -450 -28 -625 1 -335 55 -590 162 -767 323 -137 124 -268 299 -319 425 -8 21 -21 52 -28 68 -40 89 -80 266 -96 418 -6 56 -10 555 -10 1208 -1 613 -4 1124 -7 1137 -3 12 -13 22 -22 22 -14 0 -1047 -1028 -1354 -1347 -59 -62 -128 -129 -153 -149 -49 -41 -77 -84 -68 -107 3 -8 432 -442 955 -965 522 -523 949 -958 949 -967 0 -13 -85 -15 -777 -14 -428 1 -788 4 -800 7 -12 4 -360 343 -772 755 -413 411 -755 747 -761 747 -5 0 -11 -6 -12 -12 0 -7 -2 -348 -2 -758 -1 -589 -4 -745 -13 -744 -7 1 -294 2 -638 3 l-625 1 0 1866 c0 1090 4 1872 9 1882 8 16 58 17 628 17 340 -1 623 -4 630 -8z"/>
    <path d="M4045 12592 c-11 -2 -24 -8 -29 -13 -10 -9 -12 -1587 -2 -1596 3 -3 99 -5 213 -4 235 2 367 15 428 41 217 94 330 186 423 345 92 157 130 312 119 474 -9 116 -29 189 -81 296 -81 164 -210 293 -371 371 -131 64 -185 75 -375 80 -91 2 -196 6 -235 7 -38 2 -79 1 -90 -1z"/>
    <path d="M8362 11485 c-306 -69 -542 -518 -542 -1034 0 -164 8 -224 51 -396 34 -134 82 -251 142 -340 60 -89 181 -205 257 -245 60 -31 72 -34 160 -34 83 -1 105 3 170 28 67 27 86 41 175 130 88 89 106 114 152 206 61 122 106 252 130 377 24 124 24 453 0 576 -66 331 -236 602 -442 702 -85 41 -162 51 -253 30z"/>
  </g>
</svg>